<?xml version="1.0" standalone="no"?>
<!DOCTYPE svg PUBLIC "-//W3C//DTD SVG 20010904//EN"
 "http://www.w3.org/TR/2001/REC-SVG-20010904/DTD/svg10.dtd">
<svg version="1.0" xmlns="http://www.w3.org/2000/svg"
 width="828.000000pt" height="828.000000pt" viewBox="0 0 828.000000 828.000000"
 preserveAspectRatio="xMidYMid meet">
<metadata>
Created by potrace 1.11, written by Peter Selinger 2001-2013
</metadata>
<g transform="translate(0.000000,828.000000) scale(0.100000,-0.100000)"
fill="#000000" stroke="none">
<path d="M0 4140 l0 -4140 4140 0 4140 0 0 4140 0 4140 -4140 0 -4140 0 0
-4140z m3840 1562 l0 -138 -124 -23 c-786 -143 -1455 -696 -1756 -1450 -197
-496 -213 -1071 -43 -1594 14 -43 23 -80 22 -82 -22 -21 -233 -135 -239 -128
-14 15 -88 256 -114 375 -50 222 -59 316 -59 573 0 173 4 270 16 348 119 778
519 1415 1157 1842 145 98 416 231 585 288 134 46 290 86 430 111 138 25 125
38 125 -122z m726 123 c267 -46 498 -121 739 -239 785 -386 1305 -1107 1442
-2003 12 -78 16 -175 16 -348 0 -257 -9 -351 -59 -573 -24 -109 -95 -346 -115
-384 -8 -15 -23 -9 -127 53 -64 39 -118 72 -120 74 -1 1 4 18 13 38 50 120
108 384 125 572 65 706 -177 1374 -679 1876 -346 346 -767 568 -1233 651
l-128 23 0 138 c0 159 -13 146 126 122z m94 -665 c325 -83 650 -270 894 -514
298 -299 479 -655 563 -1106 24 -134 24 -477 -1 -610 -18 -101 -60 -272 -76
-314 l-9 -25 -113 66 c-62 36 -117 69 -121 73 -5 4 -1 36 8 71 64 246 71 536
19 787 -81 393 -324 774 -648 1015 -202 151 -458 269 -668 309 l-68 13 0 141
0 142 68 -13 c37 -7 105 -23 152 -35z m-820 -98 l0 -138 -62 -13 c-35 -7 -110
-28 -167 -47 -517 -172 -925 -579 -1095 -1094 -101 -307 -113 -657 -32 -966 8
-32 12 -62 8 -65 -4 -4 -59 -36 -122 -73 -132 -76 -115 -84 -155 73 -50 201
-59 274 -59 496 0 223 9 295 60 500 155 614 607 1123 1204 1357 108 42 344
107 393 108 l27 0 0 -138z m0 -620 l0 -139 -95 -37 c-106 -42 -237 -121 -322
-193 -121 -103 -242 -271 -304 -424 -58 -142 -73 -226 -73 -415 l-1 -171 -120
-71 c-79 -46 -122 -66 -126 -59 -40 75 -46 414 -11 575 56 253 155 454 314
640 147 172 381 327 598 397 47 15 90 28 95 30 44 15 45 12 45 -133z m727 107
c230 -74 460 -225 611 -401 159 -186 258 -387 314 -640 35 -161 29 -499 -11
-575 -4 -7 -46 13 -125 61 l-120 72 -2 174 c-2 192 -15 268 -73 409 -62 151
-183 322 -302 423 -83 71 -219 152 -324 194 l-95 37 0 139 c0 115 2 138 15
138 8 0 59 -14 112 -31z m-1031 -2226 c109 -70 216 -119 334 -151 85 -22 114
-25 270 -25 156 0 185 3 270 25 178 48 355 147 488 272 l70 66 120 -72 120
-72 -39 -45 c-145 -167 -380 -320 -599 -389 -171 -54 -250 -66 -430 -66 -178
-1 -285 16 -448 71 -207 69 -443 225 -581 384 l-41 47 122 70 122 71 69 -66
c38 -36 107 -90 153 -120z m-697 -198 c182 -224 489 -430 781 -523 671 -214
1405 2 1850 545 l35 43 122 -73 122 -73 -71 -85 c-320 -378 -713 -601 -1228
-696 -132 -24 -465 -24 -605 0 -445 77 -816 266 -1114 567 -81 81 -196 218
-190 224 12 12 226 135 235 136 6 0 34 -29 63 -65z m-544 -332 c83 -111 312
-337 432 -426 366 -271 731 -416 1163 -462 719 -77 1401 163 1911 674 74 75
157 165 184 201 26 36 52 69 56 74 5 5 61 -22 129 -63 l120 -72 -55 -72 c-158
-204 -330 -372 -528 -520 -342 -255 -756 -424 -1214 -494 -150 -23 -546 -23
-696 0 -458 70 -872 239 -1214 494 -203 151 -388 335 -535 531 l-57 76 117 68
c64 37 120 68 123 68 4 0 33 -35 64 -77z"/>
</g>
</svg>
