<?xml version="1.0" standalone="no"?>
<!DOCTYPE svg PUBLIC "-//W3C//DTD SVG 20010904//EN"
 "http://www.w3.org/TR/2001/REC-SVG-20010904/DTD/svg10.dtd">
<svg version="1.0" xmlns="http://www.w3.org/2000/svg"
 width="828.000000pt" height="828.000000pt" viewBox="0 0 828.000000 828.000000"
 preserveAspectRatio="xMidYMid meet">
<metadata>
Created by potrace 1.11, written by Peter Selinger 2001-2013
</metadata>
<g transform="translate(0.000000,828.000000) scale(0.100000,-0.100000)"
fill="#000000" stroke="none">
<path d="M0 4140 l0 -4140 4140 0 4140 0 0 4140 0 4140 -4140 0 -4140 0 0
-4140z m3838 1563 l-3 -146 -100 -17 c-269 -47 -539 -147 -789 -294 -277 -163
-583 -457 -762 -732 -72 -110 -164 -288 -212 -409 -119 -299 -162 -533 -162
-870 0 -279 30 -481 104 -711 l34 -104 -118 -70 c-65 -39 -123 -70 -128 -70
-13 0 -74 187 -111 337 -41 167 -61 304 -70 474 -39 746 232 1462 757 1993
329 333 741 572 1194 691 104 27 303 68 361 74 4 1 6 -65 5 -146z m757 122
c535 -93 1037 -356 1417 -741 525 -531 796 -1247 757 -1993 -10 -183 -31 -317
-79 -506 -34 -135 -96 -325 -105 -325 -4 0 -237 139 -243 145 -2 2 12 53 32
113 77 238 106 435 106 717 0 337 -43 571 -162 870 -48 121 -140 299 -212 409
-179 275 -485 569 -762 732 -246 145 -541 254 -789 294 -129 20 -115 0 -115
166 l0 145 33 -5 c17 -3 73 -13 122 -21z m-755 -769 l0 -143 -62 -13 c-174
-34 -409 -136 -593 -258 -144 -95 -358 -310 -453 -456 -261 -397 -349 -855
-251 -1306 11 -52 21 -104 22 -114 2 -15 -25 -36 -113 -88 -63 -37 -118 -68
-122 -68 -10 0 -44 117 -68 231 -71 343 -50 683 61 1023 194 591 669 1066
1257 1255 101 33 270 76 315 80 4 1 7 -64 7 -143z m781 104 c878 -215 1499
-1010 1499 -1920 0 -197 -28 -392 -83 -567 l-22 -73 -123 72 c-103 61 -123 76
-119 93 131 534 58 991 -225 1421 -96 146 -310 362 -453 457 -183 121 -419
223 -592 257 l-63 13 0 143 0 144 33 -6 c17 -3 84 -19 148 -34z m-1685 -3108
c165 -164 272 -242 459 -336 243 -121 454 -169 745 -169 291 0 502 48 745 169
188 94 294 171 458 335 l147 148 119 -72 119 -71 -19 -27 c-51 -71 -198 -225
-285 -298 -307 -256 -664 -411 -1064 -460 -109 -14 -331 -14 -440 0 -400 49
-757 204 -1064 460 -88 74 -235 227 -286 299 l-21 29 23 15 c23 14 212 126
214 126 1 0 69 -67 150 -148z m-619 -277 c103 -128 300 -319 430 -417 314
-236 696 -391 1087 -443 154 -20 468 -20 622 0 391 52 773 207 1087 443 126
95 339 301 432 419 l70 89 123 -74 c102 -61 121 -76 113 -90 -24 -44 -189
-237 -277 -326 -456 -454 -1072 -730 -1708 -764 -795 -43 -1543 260 -2086 844
-99 106 -229 276 -215 281 6 2 62 34 125 72 63 38 116 68 116 67 1 0 37 -46
81 -101z"/>
</g>
</svg>
